<svg width="239" height="468" viewBox="0 0 239 468" fill="none" xmlns="http://www.w3.org/2000/svg">
    <path d="M52.167 58.888a.807.807 0 0 0 .821-.8c0-.443-.365-.799-.821-.799a.807.807 0 0 0-.821.8c0 .443.456.799.821.799zM-5.215 132.933c10.765 0 19.431-8.435 19.431-18.911 0-10.388-8.666-18.911-19.43-18.911-10.675 0-19.432 8.523-19.432 18.911-.091 10.476 8.666 18.911 19.431 18.911zM52.167 116.508c1.368 0 2.554-1.154 2.554-2.486 0-1.332-1.094-2.486-2.554-2.486-1.369 0-2.555 1.065-2.555 2.486 0 1.332 1.186 2.486 2.555 2.486zM-5.215 177.502c4.288 0 7.846-3.374 7.846-7.547s-3.467-7.635-7.846-7.635c-4.288 0-7.754 3.374-7.754 7.635-.091 4.173 3.466 7.547 7.754 7.547zM52.167 171.109c.73 0 1.277-.532 1.277-1.243 0-.71-.547-1.243-1.277-1.243-.73 0-1.277.533-1.277 1.243 0 .711.639 1.243 1.277 1.243zM109.64 172.352c1.46 0 2.554-1.065 2.554-2.486 0-1.331-1.094-2.486-2.554-2.486-1.368 0-2.554 1.155-2.554 2.486 0 1.421 1.186 2.486 2.554 2.486zM-5.215 239.916c8.011 0 14.505-6.32 14.505-14.116 0-7.797-6.494-14.117-14.505-14.117-8.01 0-14.505 6.32-14.505 14.117 0 7.796 6.494 14.116 14.505 14.116zM52.167 229.884c2.28 0 4.105-1.776 4.105-4.084 0-2.22-1.824-3.995-4.105-3.995-2.28 0-4.105 1.775-4.105 3.995 0 2.219 1.824 4.084 4.105 4.084zM109.64 244.711c10.765 0 19.431-8.435 19.431-18.911 0-10.388-8.666-18.911-19.431-18.911-10.674 0-19.431 8.434-19.431 18.911 0 10.476 8.666 18.911 19.431 18.911zM167.113 228.019c1.277 0 2.19-.976 2.19-2.219 0-1.155-1.004-2.131-2.19-2.131-1.277 0-2.189.976-2.189 2.131-.091 1.243.912 2.219 2.189 2.219zM-5.215 292.92c6.386 0 11.495-4.972 11.495-11.187 0-6.215-5.109-11.187-11.495-11.187-6.294 0-11.494 4.972-11.494 11.187 0 6.215 5.108 11.187 11.494 11.187zM52.167 290.434c4.926 0 8.94-3.907 8.94-8.701 0-4.794-4.014-8.701-8.94-8.701-4.926 0-8.94 3.907-8.94 8.701.09 4.794 4.014 8.701 8.94 8.701zM109.64 292.742c6.295 0 11.312-4.972 11.312-11.009s-5.109-11.009-11.312-11.009c-6.203 0-11.312 4.972-11.312 11.009s5.109 11.009 11.312 11.009zM167.113 290.256c4.837 0 8.758-3.816 8.758-8.523s-3.921-8.523-8.758-8.523-8.758 3.816-8.758 8.523 3.921 8.523 8.758 8.523zM-5.215 350.54c7.298 0 13.228-5.771 13.228-12.874 0-7.102-5.93-12.873-13.228-12.873s-13.228 5.771-13.228 12.873c0 7.103 5.93 12.874 13.228 12.874zM52.167 340.241a2.631 2.631 0 0 0 2.645-2.663c0-1.421-1.185-2.575-2.645-2.575-1.551 0-2.737 1.154-2.737 2.575.091 1.509 1.277 2.663 2.737 2.663zM109.64 341.839c2.372 0 4.288-1.864 4.288-4.173 0-2.308-1.916-4.172-4.288-4.172-2.372 0-4.288 1.864-4.288 4.172 0 2.309 1.916 4.173 4.288 4.173zM167.113 346.19c4.835 0 8.758-3.818 8.758-8.524 0-4.705-3.923-8.523-8.758-8.523-4.835 0-8.758 3.818-8.758 8.523 0 4.706 3.923 8.524 8.758 8.524zM224.495 351.694c8.028 0 14.505-6.304 14.505-14.116 0-7.813-6.477-14.117-14.505-14.117s-14.505 6.304-14.505 14.117c0 7.812 6.568 14.116 14.505 14.116zM-5.215 408.871c8.758 0 15.782-6.837 15.782-15.36s-7.024-15.359-15.782-15.359c-8.667 0-15.782 6.836-15.782 15.359s7.024 15.36 15.782 15.36zM52.167 410.913c9.852 0 17.88-7.813 17.88-17.402 0-9.588-8.027-17.401-17.88-17.401-9.852 0-17.88 7.813-17.88 17.401.09 9.589 8.028 17.402 17.88 17.402zM109.64 395.109c.912 0 1.551-.71 1.551-1.598 0-.888-.73-1.509-1.551-1.509s-1.642.71-1.642 1.509c0 .888.821 1.598 1.642 1.598zM167.113 397.684c2.368 0 4.288-1.868 4.288-4.173 0-2.305-1.92-4.173-4.288-4.173-2.368 0-4.288 1.868-4.288 4.173 0 2.305 1.92 4.173 4.288 4.173zM-5.215 468c10.582 0 19.158-8.346 19.158-18.644 0-10.299-8.576-18.556-19.158-18.556s-19.066 8.257-19.066 18.556C-24.373 459.743-15.797 468-5.215 468zM109.64 452.197c1.551 0 2.919-1.243 2.919-2.841 0-1.51-1.277-2.753-2.919-2.753-1.551 0-2.828 1.243-2.828 2.753a2.823 2.823 0 0 0 2.828 2.841zM167.113 450.066c.365 0 .639-.266.639-.622 0-.355-.274-.621-.639-.621s-.639.266-.639.621c0 .356.274.622.639.622z" fill="#E42BFF"/>
</svg>
