<?xml version="1.0" encoding="utf-8"?>
<!-- Generator: Adobe Illustrator 27.5.0, SVG Export Plug-In . SVG Version: 6.00 Build 0)  -->
<svg version="1.1" id="Layer_1" xmlns="http://www.w3.org/2000/svg" xmlns:xlink="http://www.w3.org/1999/xlink" x="0px" y="0px"
	 viewBox="0 0 360 360" style="enable-background:new 0 0 360 360;" xml:space="preserve">
<g>
	<path d="M32,214.2c0-1.5-1.2-2.7-2.7-2.7c-1.5,0-2.6,1.2-2.6,2.7c0,1.5,1.2,2.7,2.6,2.7S32,215.6,32,214.2z"/>
	<path d="M96.8,214.2c0-4.1-3.3-7.5-7.5-7.5c-4.2,0-7.5,3.4-7.5,7.5c0,4.1,3.3,7.5,7.5,7.5C93.5,221.7,96.8,218.3,96.8,214.2z"/>
	<path d="M95.8,154.1c0-3.6-2.9-6.5-6.5-6.5c-3.6,0-6.5,2.9-6.5,6.5c0,3.6,2.9,6.5,6.5,6.5C92.9,160.6,95.8,157.7,95.8,154.1z"/>
	<path d="M167.5,214.2c0-10-8.1-18.1-18.2-18.1c-10,0-18.1,8.1-18.1,18.1c0,10,8.1,18.1,18.1,18.1
		C159.4,232.3,167.5,224.2,167.5,214.2z"/>
	<path d="M167.3,154.1c0-9.9-8.1-18-18-18s-18,8-18,18c0,9.9,8,18,18,18C159.3,172.1,167.3,164.1,167.3,154.1z"/>
	<path d="M161.4,94.1c0-6.6-5.4-12-12-12c-6.6,0-12,5.4-12,12c0,6.6,5.4,12,12,12C156,106.1,161.4,100.7,161.4,94.1z"/>
	<path d="M229.7,214.2c0-11.2-9.1-20.3-20.3-20.3c-11.2,0-20.3,9.1-20.3,20.3c0,11.2,9.1,20.3,20.3,20.3
		C220.6,234.5,229.7,225.4,229.7,214.2z"/>
	<path d="M217.5,154.1c0-4.5-3.6-8.2-8.1-8.2c-4.5,0-8.1,3.6-8.1,8.2c0,4.5,3.6,8.1,8.1,8.1C213.9,162.3,217.5,158.6,217.5,154.1z"
		/>
	<path d="M219.4,94.1c0-5.5-4.4-10-10-10c-5.5,0-10,4.5-10,10c0,5.5,4.4,10,10,10C214.9,104.1,219.4,99.6,219.4,94.1z"/>
	<path d="M159.3,271c0-5.5-4.4-10-10-10c-5.5,0-10,4.5-10,10c0,5.5,4.4,10,10,10C154.9,280.9,159.3,276.5,159.3,271z"/>
	<path d="M274.2,154.1c0-2.7-2.2-4.8-4.8-4.8c-2.6,0-4.8,2.2-4.8,4.8c0,2.7,2.2,4.8,4.8,4.8C272.1,159,274.2,156.8,274.2,154.1z"/>
	<path d="M337,154.1c0-8.1-6.5-14.7-14.7-14.7c-8.1,0-14.7,6.6-14.7,14.7c0,8.1,6.6,14.7,14.7,14.7S337,162.3,337,154.1z"/>
</g>
</svg>
