<?xml version="1.0" encoding="UTF-8"?><svg id="Layer_1" xmlns="http://www.w3.org/2000/svg" xmlns:xlink="http://www.w3.org/1999/xlink" viewBox="0 0 817 409"><defs><style>.cls-1{fill:url(#New_Gradient_Swatch_3);stroke-width:0px;}</style><linearGradient id="New_Gradient_Swatch_3" x1="269.14" y1="295.91" x2="540.09" y2="139.47" gradientUnits="userSpaceOnUse"><stop offset="0" stop-color="#e42bff"/><stop offset="1" stop-color="#8a189e"/></linearGradient></defs><path class="cls-1" d="M538.25,169.53v-1.68c0-65.04-52.91-117.96-117.96-117.96h-23.59c-65.04,0-117.96,52.91-117.96,117.96v1.68c-20.29,5.28-35.39,23.59-35.39,45.51v23.59c0,26.02,21.17,47.18,47.18,47.18h23.59c6.51,0,11.8-5.28,11.8-11.8v-94.37c0-6.51-5.28-11.8-11.8-11.8h-11.8c0-52.03,42.33-94.37,94.37-94.37h23.59c52.03,0,94.37,42.33,94.37,94.37h-11.8c-6.51,0-11.8,5.28-11.8,11.8v94.37c0,6.51,5.28,11.8,11.8,11.8h11.22c-3.5,36.9-23.43,44.95-37.14,46.68-5.02-13.44-17.89-23.09-33.06-23.09-19.51,0-35.39,15.87-35.39,35.39s15.87,35.39,35.39,35.39c15.55,0,28.65-10.15,33.38-24.13,36.6-3.72,57.8-28.77,60.64-71.81,20.47-5.15,35.73-23.57,35.73-45.61v-23.59c0-21.92-15.1-40.23-35.39-45.51ZM302.34,262.22h-11.8c-13.01,0-23.59-10.58-23.59-23.59v-23.59c0-13.01,10.58-23.59,23.59-23.59h11.8v70.78ZM443.89,356.59c-6.5,0-11.8-5.29-11.8-11.8s5.29-11.8,11.8-11.8,11.8,5.29,11.8,11.8-5.29,11.8-11.8,11.8ZM550.05,238.63c0,13.01-10.58,23.59-23.59,23.59h-11.8v-70.78h11.8c13.01,0,23.59,10.58,23.59,23.59v23.59Z"/></svg>